<?xml version="1.0" encoding="UTF-8" standalone="no"?>
<!-- Created with Inkscape (http://www.inkscape.org/) -->

<svg
   xmlns:dc="http://purl.org/dc/elements/1.1/"
   xmlns:cc="http://creativecommons.org/ns#"
   xmlns:rdf="http://www.w3.org/1999/02/22-rdf-syntax-ns#"
   xmlns:svg="http://www.w3.org/2000/svg"
   xmlns="http://www.w3.org/2000/svg"
   xmlns:sodipodi="http://sodipodi.sourceforge.net/DTD/sodipodi-0.dtd"
   xmlns:inkscape="http://www.inkscape.org/namespaces/inkscape"
   width="512"
   height="512"
   viewBox="0 0 512.00001 512.00001"
   id="svg2"
   version="1.1"
   inkscape:version="0.91 r13725"
   sodipodi:docname="soft-mirror-logo.svg">
  <defs
     id="defs4" />
  <sodipodi:namedview
     id="base"
     pagecolor="#ffffff"
     bordercolor="#666666"
     borderopacity="1.0"
     inkscape:pageopacity="0.0"
     inkscape:pageshadow="2"
     inkscape:zoom="0.62"
     inkscape:cx="234.53917"
     inkscape:cy="261.93548"
     inkscape:document-units="px"
     inkscape:current-layer="layer1"
     showgrid="false"
     units="px"
     inkscape:window-width="1440"
     inkscape:window-height="851"
     inkscape:window-x="0"
     inkscape:window-y="1"
     inkscape:window-maximized="1" />
  <metadata
     id="metadata7">
    <rdf:RDF>
      <cc:Work
         rdf:about="">
        <dc:format>image/svg+xml</dc:format>
        <dc:type
           rdf:resource="http://purl.org/dc/dcmitype/StillImage" />
        <dc:title></dc:title>
      </cc:Work>
    </rdf:RDF>
  </metadata>
  <g
     inkscape:label="Layer 1"
     inkscape:groupmode="layer"
     id="layer1"
     transform="translate(0,-540.36213)">
    <path
       style="fill:none;fill-opacity:1;stroke:#000000;stroke-width:0.78843611;stroke-miterlimit:4;stroke-dasharray:none;stroke-opacity:1"
       d="m 61.184098,626.45008 0,80.75156 0,1.90641 0.06776,0 a 80.751122,80.751122 0 0 0 80.683802,78.84361 80.751122,80.751122 0 0 0 80.65609,-78.84361 l 0.0939,0 0,-1.87562 a 80.751122,80.751122 0 0 0 0.002,-0.0308 80.751122,80.751122 0 0 0 -0.002,-0.0431 l 0,-80.70845 -80.75003,0 -80.75156,0 z"
       id="path4159"
       inkscape:connector-curvature="0" />
    <path
       inkscape:connector-curvature="0"
       id="path4164"
       d="m 223.37765,626.45008 0,80.75156 0,1.90641 0.0678,0 a 80.751122,80.751122 0 0 0 80.6838,78.84361 80.751122,80.751122 0 0 0 80.65609,-78.84361 l 0.0939,0 0,-1.87562 a 80.751122,80.751122 0 0 0 0.002,-0.0308 80.751122,80.751122 0 0 0 -0.002,-0.0431 l 0,-80.70845 -80.75003,0 -80.75156,0 z"
       style="fill:none;fill-opacity:1;stroke:#000000;stroke-width:0.78843611;stroke-miterlimit:4;stroke-dasharray:none;stroke-opacity:1" />
  </g>
</svg>
